<svg width="65" height="72" viewBox="0 0 65 72" fill="none" xmlns="http://www.w3.org/2000/svg">
<path d="M64.9196 25.2H43.4911V72H36.3482V50.4H29.2053V72H22.0625V25.2H0.633911V18H64.9196V25.2ZM32.7768 0C34.6712 0 36.488 0.758569 37.8275 2.10883C39.1671 3.45909 39.9196 5.29044 39.9196 7.2C39.9196 9.10956 39.1671 10.9409 37.8275 12.2912C36.488 13.6414 34.6712 14.4 32.7768 14.4C30.8824 14.4 29.0656 13.6414 27.726 12.2912C26.3865 10.9409 25.6339 9.10956 25.6339 7.2C25.6339 3.204 28.8125 0 32.7768 0Z" fill="#EC5863"/>
</svg>
